<?xml version="1.0" encoding="UTF-8" standalone="no"?>
<!-- Created with Inkscape (http://www.inkscape.org/) -->

<svg
   width="210mm"
   height="297mm"
   viewBox="0 0 210 297"
   version="1.1"
   id="svg1"
   inkscape:version="1.4.3 (0d15f75, 2025-12-25)"
   sodipodi:docname="back.svg"
   xmlns:inkscape="http://www.inkscape.org/namespaces/inkscape"
   xmlns:sodipodi="http://sodipodi.sourceforge.net/DTD/sodipodi-0.dtd"
   xmlns="http://www.w3.org/2000/svg"
   xmlns:svg="http://www.w3.org/2000/svg">
  <sodipodi:namedview
     id="namedview1"
     pagecolor="#ffffff"
     bordercolor="#000000"
     borderopacity="0.25"
     inkscape:showpageshadow="2"
     inkscape:pageopacity="0.0"
     inkscape:pagecheckerboard="0"
     inkscape:deskcolor="#d1d1d1"
     inkscape:document-units="mm"
     inkscape:zoom="1"
     inkscape:cx="518"
     inkscape:cy="438.5"
     inkscape:window-width="1920"
     inkscape:window-height="991"
     inkscape:window-x="-9"
     inkscape:window-y="-9"
     inkscape:window-maximized="1"
     inkscape:current-layer="layer1" />
  <defs
     id="defs1">
    <inkscape:path-effect
       effect="bspline"
       id="path-effect52"
       is_visible="true"
       lpeversion="1.3"
       weight="33.333333"
       steps="2"
       helper_size="0"
       apply_no_weight="true"
       apply_with_weight="true"
       only_selected="false"
       uniform="false" />
    <inkscape:path-effect
       effect="bspline"
       id="path-effect51"
       is_visible="true"
       lpeversion="1.3"
       weight="33.333333"
       steps="2"
       helper_size="0"
       apply_no_weight="true"
       apply_with_weight="true"
       only_selected="false"
       uniform="false" />
    <inkscape:path-effect
       effect="bspline"
       id="path-effect50"
       is_visible="true"
       lpeversion="1.3"
       weight="33.333333"
       steps="2"
       helper_size="0"
       apply_no_weight="true"
       apply_with_weight="true"
       only_selected="false"
       uniform="false" />
    <inkscape:path-effect
       effect="bspline"
       id="path-effect59"
       is_visible="true"
       lpeversion="1.3"
       weight="33.333333"
       steps="2"
       helper_size="0"
       apply_no_weight="true"
       apply_with_weight="true"
       only_selected="false"
       uniform="false" />
    <inkscape:path-effect
       effect="bspline"
       id="path-effect58"
       is_visible="true"
       lpeversion="1.3"
       weight="33.333333"
       steps="2"
       helper_size="0"
       apply_no_weight="true"
       apply_with_weight="true"
       only_selected="false"
       uniform="false" />
    <inkscape:path-effect
       effect="bspline"
       id="path-effect57"
       is_visible="true"
       lpeversion="1.3"
       weight="33.333333"
       steps="2"
       helper_size="0"
       apply_no_weight="true"
       apply_with_weight="true"
       only_selected="false"
       uniform="false" />
    <inkscape:path-effect
       effect="bspline"
       id="path-effect13"
       is_visible="true"
       lpeversion="1.3"
       weight="33.333333"
       steps="2"
       helper_size="0"
       apply_no_weight="true"
       apply_with_weight="true"
       only_selected="false"
       uniform="false" />
    <inkscape:path-effect
       effect="bspline"
       id="path-effect12"
       is_visible="true"
       lpeversion="1.3"
       weight="33.333333"
       steps="2"
       helper_size="0"
       apply_no_weight="true"
       apply_with_weight="true"
       only_selected="false"
       uniform="false" />
    <inkscape:path-effect
       effect="bspline"
       id="path-effect10"
       is_visible="true"
       lpeversion="1.3"
       weight="33.333333"
       steps="2"
       helper_size="0"
       apply_no_weight="true"
       apply_with_weight="true"
       only_selected="false"
       uniform="false" />
    <inkscape:path-effect
       effect="bspline"
       id="path-effect9"
       is_visible="true"
       lpeversion="1.3"
       weight="33.333333"
       steps="2"
       helper_size="0"
       apply_no_weight="true"
       apply_with_weight="true"
       only_selected="false"
       uniform="false" />
    <inkscape:path-effect
       effect="bspline"
       id="path-effect5"
       is_visible="true"
       lpeversion="1.3"
       weight="33.333333"
       steps="2"
       helper_size="0"
       apply_no_weight="true"
       apply_with_weight="true"
       only_selected="false"
       uniform="false" />
    <inkscape:path-effect
       effect="bspline"
       id="path-effect4"
       is_visible="true"
       lpeversion="1.3"
       weight="33.333333"
       steps="2"
       helper_size="0"
       apply_no_weight="true"
       apply_with_weight="true"
       only_selected="false"
       uniform="false" />
    <inkscape:path-effect
       effect="bspline"
       id="path-effect3"
       is_visible="true"
       lpeversion="1.3"
       weight="33.333333"
       steps="2"
       helper_size="0"
       apply_no_weight="true"
       apply_with_weight="true"
       only_selected="false"
       uniform="false" />
    <inkscape:path-effect
       effect="fillet_chamfer"
       id="path-effect2"
       is_visible="true"
       lpeversion="1"
       nodesatellites_param="F,0,0,1,0,0,0,1 @ F,0,0,1,0,56.211041,0,1 @ F,0,0,1,0,0,0,1 @ F,0,0,1,0,53.868915,0,1"
       radius="0"
       unit="px"
       method="auto"
       mode="F"
       chamfer_steps="1"
       flexible="false"
       use_knot_distance="true"
       apply_no_radius="true"
       apply_with_radius="true"
       only_selected="false"
       hide_knots="false" />
    <inkscape:path-effect
       effect="fillet_chamfer"
       id="path-effect2-5"
       is_visible="true"
       lpeversion="1"
       nodesatellites_param="F,0,0,1,0,0,0,1 @ F,0,0,1,0,56.211041,0,1 @ F,0,0,1,0,0,0,1 @ F,0,0,1,0,53.868915,0,1"
       radius="0"
       unit="px"
       method="auto"
       mode="F"
       chamfer_steps="1"
       flexible="false"
       use_knot_distance="true"
       apply_no_radius="true"
       apply_with_radius="true"
       only_selected="false"
       hide_knots="false" />
    <inkscape:path-effect
       effect="bspline"
       id="path-effect3-2"
       is_visible="true"
       lpeversion="1.3"
       weight="33.333333"
       steps="2"
       helper_size="0"
       apply_no_weight="true"
       apply_with_weight="true"
       only_selected="false"
       uniform="false" />
    <inkscape:path-effect
       effect="bspline"
       id="path-effect5-3"
       is_visible="true"
       lpeversion="1.3"
       weight="33.333333"
       steps="2"
       helper_size="0"
       apply_no_weight="true"
       apply_with_weight="true"
       only_selected="false"
       uniform="false" />
    <inkscape:path-effect
       effect="fillet_chamfer"
       id="path-effect2-57"
       is_visible="true"
       lpeversion="1"
       nodesatellites_param="F,0,0,1,0,0,0,1 @ F,0,0,1,0,56.211041,0,1 @ F,0,0,1,0,0,0,1 @ F,0,0,1,0,53.868915,0,1"
       radius="0"
       unit="px"
       method="auto"
       mode="F"
       chamfer_steps="1"
       flexible="false"
       use_knot_distance="true"
       apply_no_radius="true"
       apply_with_radius="true"
       only_selected="false"
       hide_knots="false" />
    <inkscape:path-effect
       effect="bspline"
       id="path-effect3-6"
       is_visible="true"
       lpeversion="1.3"
       weight="33.333333"
       steps="2"
       helper_size="0"
       apply_no_weight="true"
       apply_with_weight="true"
       only_selected="false"
       uniform="false" />
    <inkscape:path-effect
       effect="bspline"
       id="path-effect4-1"
       is_visible="true"
       lpeversion="1.3"
       weight="33.333333"
       steps="2"
       helper_size="0"
       apply_no_weight="true"
       apply_with_weight="true"
       only_selected="false"
       uniform="false" />
    <inkscape:path-effect
       effect="bspline"
       id="path-effect5-8"
       is_visible="true"
       lpeversion="1.3"
       weight="33.333333"
       steps="2"
       helper_size="0"
       apply_no_weight="true"
       apply_with_weight="true"
       only_selected="false"
       uniform="false" />
    <inkscape:path-effect
       effect="bspline"
       id="path-effect5-3-9"
       is_visible="true"
       lpeversion="1.3"
       weight="33.333333"
       steps="2"
       helper_size="0"
       apply_no_weight="true"
       apply_with_weight="true"
       only_selected="false"
       uniform="false" />
    <inkscape:path-effect
       effect="bspline"
       id="path-effect9-2"
       is_visible="true"
       lpeversion="1.3"
       weight="33.333333"
       steps="2"
       helper_size="0"
       apply_no_weight="true"
       apply_with_weight="true"
       only_selected="false"
       uniform="false" />
    <inkscape:path-effect
       effect="bspline"
       id="path-effect10-8"
       is_visible="true"
       lpeversion="1.3"
       weight="33.333333"
       steps="2"
       helper_size="0"
       apply_no_weight="true"
       apply_with_weight="true"
       only_selected="false"
       uniform="false" />
    <inkscape:path-effect
       effect="bspline"
       id="path-effect12-6"
       is_visible="true"
       lpeversion="1.3"
       weight="33.333333"
       steps="2"
       helper_size="0"
       apply_no_weight="true"
       apply_with_weight="true"
       only_selected="false"
       uniform="false" />
    <inkscape:path-effect
       effect="bspline"
       id="path-effect13-6"
       is_visible="true"
       lpeversion="1.3"
       weight="33.333333"
       steps="2"
       helper_size="0"
       apply_no_weight="true"
       apply_with_weight="true"
       only_selected="false"
       uniform="false" />
    <inkscape:path-effect
       effect="bspline"
       id="path-effect57-4"
       is_visible="true"
       lpeversion="1.3"
       weight="33.333333"
       steps="2"
       helper_size="0"
       apply_no_weight="true"
       apply_with_weight="true"
       only_selected="false"
       uniform="false" />
    <inkscape:path-effect
       effect="bspline"
       id="path-effect52-4"
       is_visible="true"
       lpeversion="1.3"
       weight="33.333333"
       steps="2"
       helper_size="0"
       apply_no_weight="true"
       apply_with_weight="true"
       only_selected="false"
       uniform="false" />
    <inkscape:path-effect
       effect="bspline"
       id="path-effect5-8-4"
       is_visible="true"
       lpeversion="1.3"
       weight="33.333333"
       steps="2"
       helper_size="0"
       apply_no_weight="true"
       apply_with_weight="true"
       only_selected="false"
       uniform="false" />
    <inkscape:path-effect
       effect="bspline"
       id="path-effect5-3-9-2"
       is_visible="true"
       lpeversion="1.3"
       weight="33.333333"
       steps="2"
       helper_size="0"
       apply_no_weight="true"
       apply_with_weight="true"
       only_selected="false"
       uniform="false" />
  </defs>
  <g
     inkscape:label="Warstwa 1"
     inkscape:groupmode="layer"
     id="layer1">
    <rect
       style="fill:#e6e6e6;fill-opacity:1;fill-rule:nonzero;stroke:#000000;stroke-width:0.867;stroke-linecap:round;stroke-dasharray:none;stroke-opacity:1"
       id="rect110"
       width="156.5842"
       height="147.83299"
       x="21.724327"
       y="46.773235"
       ry="30.956249"
       inkscape:export-filename="rect110.png"
       inkscape:export-xdpi="96"
       inkscape:export-ydpi="96" />
    <g
       id="g52"
       style="stroke-width:0.5;stroke-dasharray:none;fill:#ffffff;fill-opacity:0">
      <path
         style="fill:#ffffff;fill-opacity:0;stroke:#000000;stroke-width:0.501333;stroke-dasharray:none;stroke-opacity:1"
         d="m 65.319317,107.77552 c 3.816801,10.14922 7.633598,21.56193 7.286572,33.53294 -0.347027,11.97101 -4.8577,25.76326 -9.368462,39.55578"
         id="path3"
         transform="matrix(1.000016,0,0,0.99467229,-2.1069453,1.4535744)"
         sodipodi:nodetypes="csc" />
      <path
         style="fill:#ffffff;fill-opacity:0;stroke:#000000;stroke-width:0.50161763;stroke-dasharray:none;stroke-opacity:1"
         d="m 79.862451,80.000463 c 3.30636,-1.857625 6.61272,-3.715251 9.096937,-7.142577 2.484217,-3.427326 4.146227,-8.424156 5.80827,-13.421085"
         id="path4"
         transform="matrix(1.0045229,0,0,0.98908722,-2.5344366,1.6032131)" />
      <path
         style="fill:#ffffff;fill-opacity:0;stroke:#000000;stroke-width:0.499455;stroke-dasharray:none;stroke-opacity:1"
         d="m 52.106814,111.37317 c -2.338524,2.40753 -6.180221,7.30108 -7.901539,10.26836 -1.721319,2.96728 -2.825386,6.49416 -3.28542,9.9598 -0.460035,3.46565 -0.276024,6.86986 -0.122676,8.80202 0.153347,1.93216 -0.252568,2.39219 -1.172663,3.941 -0.920095,1.54882 -2.882885,4.18632 -3.956305,9.13893 -1.073421,4.95261 -1.257432,12.21998 -1.441447,19.48748"
         id="path5"
         transform="matrix(1.0010908,0,0,1.0010908,-2.1431358,0.46296812)"
         sodipodi:nodetypes="ccccccc" />
      <path
         style="fill:#ffffff;fill-opacity:0;stroke:#000000;stroke-width:0.462654;stroke-dasharray:none;stroke-opacity:1"
         d="m 50.931577,112.85441 c -2.338524,2.40753 -5.106584,6.08869 -6.827902,9.05597 -1.721319,2.96728 -2.825386,6.49416 -3.28542,9.9598 -0.460035,3.46565 -0.703014,6.60101 -0.549666,8.53317 0.153347,1.93216 0.276022,2.39219 -0.644073,3.941 -0.920095,1.54882 -2.882885,4.18632 -4.712249,8.06338 -1.829365,3.87707 -3.5252,8.99344 -5.221064,14.1099"
         id="path5-1"
         transform="matrix(-0.80644732,-0.59339314,-0.68745745,0.94243851,178.30649,34.248948)"
         sodipodi:nodetypes="ccccccc" />
      <path
         style="fill:#ffffff;fill-opacity:0;stroke:#000000;stroke-width:0.466201;stroke-dasharray:none;stroke-opacity:1"
         d="m 149.77194,112.16083 a 28.440202,30.810457 0 0 0 -27.8288,-31.458882 v 1.310786 a 27.828794,30.148092 0 0 0 27.8288,30.148096 z"
         id="path2-5" />
      <path
         style="fill:#ffffff;fill-opacity:0;stroke:#000000;stroke-width:0.466201;stroke-dasharray:none;stroke-opacity:1"
         d="m 49.986127,112.16488 a 28.440202,30.810457 0 0 1 27.8288,-31.458878 v 1.310789 a 27.828794,30.148092 0 0 1 -27.8288,30.148089 z"
         id="path2-5-8" />
      <path
         style="fill:#ffffff;fill-opacity:0;stroke:#000000;stroke-width:0.503237;stroke-dasharray:none;stroke-opacity:1"
         d="m 65.319317,107.68865 c 3.816801,10.14922 7.633598,21.6488 7.286572,33.61981 -0.347027,11.97101 -4.8577,25.76326 -9.368462,39.55578"
         id="path3-4"
         transform="matrix(-1.0000388,0,0,0.98713975,201.88872,2.2865828)"
         sodipodi:nodetypes="csc" />
      <path
         style="fill:#ffffff;fill-opacity:0;stroke:#000000;stroke-width:0.50257589;stroke-dasharray:none;stroke-opacity:1"
         d="m 79.862451,80.000463 c 3.30636,-1.857625 6.61272,-3.715251 9.096937,-7.142577 2.484217,-3.427326 4.146227,-8.424156 5.80827,-13.421085"
         id="path4-3"
         transform="matrix(-0.99903943,0,0,0.99072718,201.79487,1.4545209)" />
      <path
         style="fill:#ffffff;fill-opacity:0;stroke:#000000;stroke-width:0.5;stroke-dasharray:none;stroke-opacity:1"
         d="m 92.594514,60.434653 14.621476,-0.06507"
         id="path14" />
      <path
         style="fill:#ffffff;fill-opacity:0;stroke:#000000;stroke-width:0.5;stroke-dasharray:none;stroke-opacity:1"
         d="m 61.089109,181.31445 c 0,0 25.477735,6.22221 38.918051,6.22221 16.69659,0 38.67617,-6.74267 38.67617,-6.74267"
         id="path15"
         sodipodi:nodetypes="csc" />
      <path
         style="fill:#ffffff;fill-opacity:0;stroke:#000000;stroke-width:0.40175504;stroke-dasharray:none;stroke-opacity:1"
         d="m 80.673259,80.803379 c 2.168636,6.766144 4.337272,13.532289 7.633644,19.387651 3.296371,5.85537 7.720299,10.79976 12.144317,15.74425"
         id="path9"
         transform="matrix(1.1227057,0,0,1.3795944,-12.757676,-30.722067)" />
      <path
         style="fill:#ffffff;fill-opacity:0;stroke:#000000;stroke-width:0.40354674;stroke-dasharray:none;stroke-opacity:1"
         d="m 80.673259,80.803379 c 2.168636,6.766144 4.337272,13.532289 7.633644,19.387651 3.296371,5.85537 7.720299,10.79976 12.144317,15.74425"
         id="path9-9"
         transform="matrix(-1.1097024,0,0,1.3833937,211.46981,-31.136527)" />
      <path
         style="fill:#ffffff;fill-opacity:0;stroke:#000000;stroke-width:0.489224;stroke-dasharray:none;stroke-opacity:1"
         d="m 72.842258,103.44447 c 3.121233,0.65066 7.281737,1.30132 9.895793,1.01936 2.614056,-0.28197 4.720845,-1.49651 6.827678,-2.71107"
         id="path10"
         transform="matrix(1.0501661,0,0,0.9946409,-9.2124771,2.8671516)"
         sodipodi:nodetypes="csc" />
      <path
         style="fill:#ffffff;fill-opacity:0;stroke:#000000;stroke-width:0.471438;stroke-dasharray:none;stroke-opacity:1"
         d="m 72.989298,103.44447 c 3.121233,0.65066 7.134697,1.30132 9.748753,1.01936 2.614056,-0.28197 4.720845,-1.49651 6.827678,-2.71107"
         id="path10-2"
         transform="matrix(-1.1120307,0,0,1.0115184,214.34215,1.8732912)"
         sodipodi:nodetypes="csc" />
      <path
         style="fill:#ffffff;fill-opacity:0;stroke:#000000;stroke-width:0.5;stroke-dasharray:none;stroke-opacity:1"
         d="M 100.00289,60.394476 V 187.55674"
         id="path11" />
      <path
         style="fill:#ffffff;fill-opacity:0;stroke:#000000;stroke-width:0.469944;stroke-dasharray:none;stroke-opacity:1"
         d="m 65.870945,180.76515 c 1.150948,-3.97363 2.301888,-5.34866 3.77784,-8.66126 1.475952,-3.3126 3.276914,-5.96419 5.901662,-8.57824 2.624747,-2.61405 6.073228,-4.15109 9.971725,-3.18391 3.898496,0.96718 8.246818,4.43853 10.867683,8.51795 2.620865,4.07942 3.514221,5.12885 4.407585,8.77688"
         id="path12"
         sodipodi:nodetypes="cccccc"
         transform="matrix(1.1117839,0,0,1.0181873,-12.058662,-2.6618989)" />
      <path
         style="fill:#ffffff;fill-opacity:0;stroke:#000000;stroke-width:0.5;stroke-dasharray:none;stroke-opacity:1"
         d="m 138.75084,181.03567 c -1.2796,-4.0459 -2.5592,-4.91974 -4.20014,-8.29259 -1.64094,-3.37285 -3.64322,-6.07266 -6.56138,-8.73426 -2.91815,-2.66159 -6.75211,-4.22658 -11.0864,-3.24181 -4.33428,0.98477 -9.16868,4.51925 -12.08251,8.67287 -2.91384,4.15361 -3.90706,5.22213 -4.900289,8.9365"
         id="path12-3"
         sodipodi:nodetypes="cccccc" />
      <path
         style="fill:#ffffff;fill-opacity:0;stroke:#000000;stroke-width:0.46905266;stroke-dasharray:none;stroke-opacity:1"
         d="m 73.981836,139.17342 c 4.41409,-0.36807 8.828183,-0.73613 13.269908,-2.39247 4.441725,-1.65634 8.910898,-4.60082 13.380166,-7.54537"
         id="path13"
         transform="matrix(1.1057317,0,0,1.0276543,-11.336881,-3.6405695)" />
      <path
         style="fill:#ffffff;fill-opacity:0;stroke:#000000;stroke-width:0.47099696;stroke-dasharray:none;stroke-opacity:1"
         d="m 73.981836,139.17342 c 4.41409,-0.36807 8.828183,-0.73613 13.269908,-2.39247 4.441725,-1.65634 8.910898,-4.60082 13.380166,-7.54537"
         id="path13-8"
         transform="matrix(-1.0962506,0,0,1.028002,210.3857,-3.7125291)" />
      <path
         style="fill:#ffffff;fill-opacity:0;stroke:#000000;stroke-width:0.5;stroke-dasharray:none;stroke-opacity:1"
         d="m 47.646871,144.87094 c 0,0 -5.192239,3.58172 -6.620781,3.20711 -1.143831,-0.29995 -2.880949,-4.53658 -2.880949,-4.53658"
         id="path52-7"
         sodipodi:nodetypes="csc" />
      <path
         style="fill:#ff5555;fill-opacity:0;stroke:#000000;stroke-width:0.499999;stroke-linecap:round;stroke-dasharray:none;stroke-opacity:1"
         d="m 32.085706,173.43119 c 0,0 2.815014,0.43317 4.232882,0.42095 1.208613,-0.0104 3.601455,-0.42095 3.601455,-0.42095"
         id="path90"
         sodipodi:nodetypes="cac" />
      <g
         id="g1"
         transform="translate(28.591128,-3.2431693)">
        <path
           style="fill:#ffffff;fill-opacity:0;stroke:#000000;stroke-width:0.5;stroke-dasharray:none;stroke-opacity:1"
           d="m 121.1913,115.0375 c 2.34107,2.41016 6.18696,7.30905 7.91016,10.27956 1.72319,2.97052 2.82847,6.50125 3.289,9.97067 0.46054,3.46943 0.27633,6.87735 0.12281,8.81162 -0.15351,1.93427 0.25284,2.3948 1.17394,3.9453 0.9211,1.55051 2.88603,4.19089 3.96062,9.1489 1.0746,4.95801 1.25881,12.23331 1.44302,19.50873"
           id="path5-17"
           sodipodi:nodetypes="ccccccc" />
        <path
           style="fill:#ffffff;fill-opacity:0;stroke:#000000;stroke-width:0.5;stroke-dasharray:none;stroke-opacity:1"
           d="m 111.56157,113.46472 c -0.23082,3.65661 0.0675,8.76843 0.71925,12.58633 0.65172,3.81789 2.18593,7.79691 4.19742,11.33604 2.01149,3.53915 3.97097,6.63821 5.42291,8.36816 1.45195,1.72994 1.86713,2.0907 2.18986,4.09634 0.32274,2.00564 0.55302,5.65603 1.74305,10.39545 1.19004,4.73943 3.33972,10.5676 5.48945,16.39586"
           id="path5-1-1"
           sodipodi:nodetypes="ccccccc" />
        <path
           style="fill:#ffffff;fill-opacity:0;stroke:#000000;stroke-width:0.5;stroke-dasharray:none;stroke-opacity:1"
           d="m 123.56494,147.95082 c 0,0 5.19224,3.58172 6.62079,3.20711 1.14383,-0.29995 2.88094,-4.53658 2.88094,-4.53658"
           id="path52-7-1"
           sodipodi:nodetypes="csc" />
        <path
           style="fill:#ff5555;fill-opacity:0;stroke:#000000;stroke-width:0.499999;stroke-linecap:round;stroke-dasharray:none;stroke-opacity:1"
           d="m 139.12611,176.51107 c 0,0 -2.81501,0.43317 -4.23288,0.42095 -1.20862,-0.0104 -3.60146,-0.42095 -3.60146,-0.42095"
           id="path90-5"
           sodipodi:nodetypes="cac" />
      </g>
    </g>
  </g>
</svg>
