<?xml version="1.0" encoding="UTF-8" standalone="no"?>
<!-- Created with Inkscape (http://www.inkscape.org/) -->

<svg
   width="210mm"
   height="297mm"
   viewBox="0 0 210 297"
   version="1.1"
   id="svg1"
   inkscape:version="1.4.3 (0d15f75, 2025-12-25)"
   sodipodi:docname="legs-back.svg"
   xmlns:inkscape="http://www.inkscape.org/namespaces/inkscape"
   xmlns:sodipodi="http://sodipodi.sourceforge.net/DTD/sodipodi-0.dtd"
   xmlns="http://www.w3.org/2000/svg"
   xmlns:svg="http://www.w3.org/2000/svg">
  <sodipodi:namedview
     id="namedview1"
     pagecolor="#ffffff"
     bordercolor="#000000"
     borderopacity="0.25"
     inkscape:showpageshadow="2"
     inkscape:pageopacity="0.0"
     inkscape:pagecheckerboard="0"
     inkscape:deskcolor="#d1d1d1"
     inkscape:document-units="mm"
     inkscape:zoom="0.97386896"
     inkscape:cx="228.98358"
     inkscape:cy="354.77052"
     inkscape:window-width="1920"
     inkscape:window-height="991"
     inkscape:window-x="-9"
     inkscape:window-y="-9"
     inkscape:window-maximized="1"
     inkscape:current-layer="layer1" />
  <defs
     id="defs1">
    <inkscape:path-effect
       effect="bspline"
       id="path-effect6-0"
       is_visible="true"
       lpeversion="1.3"
       weight="33.333333"
       steps="2"
       helper_size="0"
       apply_no_weight="true"
       apply_with_weight="true"
       only_selected="false"
       uniform="false" />
    <inkscape:path-effect
       effect="bspline"
       id="path-effect6-0-6"
       is_visible="true"
       lpeversion="1.3"
       weight="33.333333"
       steps="2"
       helper_size="0"
       apply_no_weight="true"
       apply_with_weight="true"
       only_selected="false"
       uniform="false" />
  </defs>
  <g
     inkscape:label="Warstwa 1"
     inkscape:groupmode="layer"
     id="layer1">
    <g
       id="g4"
       inkscape:export-filename="legs-back.png"
       inkscape:export-xdpi="96"
       inkscape:export-ydpi="96"
       transform="translate(3.4143164,2.8190565)">
      <rect
         style="fill:#e6e6e6;fill-opacity:1;fill-rule:nonzero;stroke:#000000;stroke-width:0.867;stroke-linecap:round;stroke-dasharray:none;stroke-opacity:1"
         id="rect110"
         width="156.5842"
         height="147.83299"
         x="20.947252"
         y="13.471494"
         ry="30.956249"
         inkscape:export-filename="front.png"
         inkscape:export-xdpi="96"
         inkscape:export-ydpi="96" />
    </g>
    <g
       id="g6"
       transform="translate(3.4143164,2.8190565)">
      <g
         id="g5"
         transform="translate(1.2855101,-0.09522297)">
        <g
           id="g1-9-1-9"
           transform="matrix(-1.3353858,0,0,1.3353858,299.87156,-79.171452)"
           style="stroke-width:0.36694;stroke-dasharray:none">
          <path
             style="fill:#e6e6e6;fill-opacity:0;stroke:#000000;stroke-width:0.36694;stroke-linecap:round;stroke-dasharray:none"
             d="m 132.58445,85.631923 c -1.7208,-0.376549 -4.96691,15.032547 -5.76444,22.845927 -1.23226,12.07234 3.94021,20.27832 4.27337,28.69003 0.18103,4.57053 -0.71715,8.14686 0.11979,17.3762 0.86422,9.53024 1.53873,19.18294 1.90494,21.06148 0.0407,0.20869 0.12056,0.66354 0.33602,0.83637 0.29879,0.23964 2.8904,1.44076 3.50093,0.3833 0.25736,-0.44576 0.0881,-5.94106 1.10738,-11.70015 0.65105,-3.67863 1.79483,-7.08671 2.41144,-10.57143 0.65009,-3.67396 1.09474,-6.96883 0.85728,-10.26674 -0.16107,-2.23694 -0.84991,-4.47526 -1.17542,-6.83423 -0.40299,-2.92044 -0.50299,-6.31155 0.9627,-9.24388 2.74011,-5.4818 3.17161,-13.35475 3.16853,-18.74227 -0.005,-9.33527 -2.42054,-20.67567 -3.41329,-21.483379 -1.33048,-1.082488 -6.33737,-1.924118 -8.28923,-2.351228 z"
             id="path1-8-9-3-6-2-1-8"
             sodipodi:nodetypes="ssssssssssssszs" />
        </g>
      </g>
    </g>
    <g
       id="g6-6"
       transform="matrix(-1,0,0,1,206.85861,3.1384015)">
      <g
         id="g5-1"
         transform="translate(1.2855101,-0.09522297)">
        <g
           id="g1-9-1-9-84"
           transform="matrix(-1.3353858,0,0,1.3353858,299.87156,-79.171452)"
           style="stroke-width:0.36694;stroke-dasharray:none">
          <path
             style="fill:#e6e6e6;fill-opacity:0;stroke:#000000;stroke-width:0.37442363;stroke-linecap:round;stroke-dasharray:none"
             d="m 132.58445,85.631923 c -1.7208,-0.376549 -4.96691,15.032547 -5.76444,22.845927 -1.23226,12.07234 3.94021,20.27832 4.27337,28.69003 0.18103,4.57053 -0.71715,8.14686 0.11979,17.3762 0.86422,9.53024 1.53873,19.18294 1.90494,21.06148 0.0407,0.20869 -0.01,0.62232 0.19736,0.80486 0.36644,0.32263 3.02906,1.47227 3.63959,0.41481 0.41971,-0.72697 0.0881,-5.94106 1.10738,-11.70015 0.65105,-3.67863 1.79483,-7.08671 2.41144,-10.57143 0.65009,-3.67396 1.09474,-6.96883 0.85728,-10.26674 -0.16107,-2.23694 -0.84991,-4.47526 -1.17542,-6.83423 -0.40299,-2.92044 -0.50299,-6.31155 0.9627,-9.24388 2.74011,-5.4818 3.17161,-13.35475 3.16853,-18.74227 -0.005,-9.33527 -2.42054,-20.67567 -3.41329,-21.483379 -1.33048,-1.082488 -6.33737,-1.924118 -8.28923,-2.351228 z"
             id="path1-8-9-3-6-2-1-8-9"
             sodipodi:nodetypes="ssssssssssssszs" />
        </g>
      </g>
    </g>
    <path
       style="fill:#b10000;fill-opacity:0;stroke:#000000;stroke-width:0.499999;stroke-linecap:round;stroke-dasharray:none"
       d="m 82.446196,38.236114 c 0,0 1.175862,-4.248043 2.91113,-5.236743 11.768346,-6.705222 29.382164,-6.440514 40.618034,1.123167 1.14662,0.771878 1.66603,3.797274 1.66603,3.797274 0,0 -10.61808,1.598753 -11.58088,3.266376 -0.67553,1.170038 -2.21197,8.916864 -2.21197,8.916864 0,0 -5.7923,2.731298 -8.56942,2.728118 -3.02753,-0.004 -8.844554,-2.748058 -8.844554,-2.748058 0,0 -0.48245,-6.344993 -2.58606,-8.460966 -2.84424,-2.860955 -11.40234,-3.386034 -11.40234,-3.386034 z"
       id="path6"
       sodipodi:nodetypes="caacscscscc" />
    <path
       style="fill:#e6e6e6;fill-opacity:1;stroke:#000000;stroke-width:0.5;stroke-linecap:round;stroke-dasharray:none"
       d="m 84.397399,33.527408 c -2.883923,3.209383 -2.000981,6.974452 -2.020513,12.164618 -0.01977,5.255056 -0.905934,11.935473 2.020513,15.177831 4.014379,4.447734 13.017182,4.447727 17.031581,0 2.9847,-3.306877 3.35144,-8.719616 3.28402,-14.081763 -0.0644,-5.119837 -0.97514,-9.739198 -3.83126,-12.889659 -1.968671,-2.171569 -4.582362,-3.719652 -7.766672,-3.748165 -3.32332,-0.02976 -6.672116,1.100738 -8.717669,3.377143 z"
       id="path1"
       sodipodi:nodetypes="sssssssss" />
    <path
       style="fill:#e6e6e6;fill-opacity:1;stroke:#000000;stroke-width:0.499999;stroke-linecap:round;stroke-dasharray:none"
       d="m 97.49781,83.041884 c 0,0 -4.110758,-8.329915 -4.949905,-12.839312 -0.365301,-1.96305 -0.137426,-5.990251 0,-5.990251 3.879759,0 5.526482,-0.776675 5.526482,-0.776675 l 0.310053,7.914342 z"
       id="path2"
       sodipodi:nodetypes="casccc" />
    <path
       style="fill:#e6e6e6;fill-opacity:1;stroke:#000000;stroke-width:0.499999;stroke-linecap:round;stroke-dasharray:none"
       d="m 82.794179,51.178225 c 0,0 -1.688459,0.450498 -2.448532,0.864619 -1.047476,0.570711 -2.830772,2.189288 -2.830772,2.189288 0,0 1.516029,-7.822088 2.821853,-11.571344 0.300343,-0.862339 0.659892,-2.265171 1.138592,-3.244656 0.391328,-0.800708 0.94194,-1.278675 0.94194,-1.278675 0,0 0.444243,4.797097 0.502181,7.203341 0.04685,1.945693 -0.125262,5.837427 -0.125262,5.837427 z"
       id="path3"
       sodipodi:nodetypes="cacsscac" />
    <path
       style="fill:#e6e6e6;fill-opacity:1;stroke:#000000;stroke-width:0.499999;stroke-linecap:round;stroke-dasharray:none;stroke-dashoffset:0"
       d="m 84.383731,60.178039 -9.605433,14.648286 c 0,0 0.444768,-7.381824 0.948198,-11.041357 0.435501,-3.165747 1.78935,-9.418216 1.78935,-9.418216 1.50629,-1.341882 3.20455,-2.804985 5.280574,-3.007399 0,0 -0.01698,3.613372 0.347844,5.369443 0.248504,1.196187 1.239467,3.449243 1.239467,3.449243 z"
       id="path4"
       sodipodi:nodetypes="ccaccac" />
    <path
       style="fill:#e6e6e6;fill-opacity:1;stroke:#000000;stroke-width:0.499999;stroke-linecap:round;stroke-dasharray:none;stroke-dashoffset:0"
       d="m 86.284038,99.536447 c 0,0 -4.446023,-17.004755 -2.441518,-23.806484 1.244686,-4.223494 4.235558,-12.646155 4.235558,-12.646155 0,0 -1.449179,-0.708624 -2.081466,-1.200212 -0.626485,-0.487077 -1.660908,-1.705557 -1.660908,-1.705557 -4.735578,2.849498 -7.004054,8.545651 -9.461352,14.023933 0,0 0.319199,8.541759 1.151476,12.715392 0.930581,4.666596 4.264358,13.623626 4.264358,13.623626 2.261339,2.19368 4.182508,1.12172 5.993852,-1.004543 z"
       id="path5"
       sodipodi:nodetypes="cscaccacc" />
    <path
       style="fill:#e6e6e6;fill-opacity:1;stroke:#000000;stroke-width:0.5;stroke-linecap:round;stroke-dasharray:none;stroke-dashoffset:0"
       d="m 87.919731,63.035655 c 0,0 -4.287214,9.814416 -4.736679,15.056517 -0.615454,7.178023 2.88163,21.420116 2.88163,21.420116 1.632289,2.532602 3.901359,1.881302 6.43564,-0.09605 0,0 2.124005,-4.666214 2.88163,-7.108021 0.971501,-3.131127 2.113195,-9.605433 2.113195,-9.605433 0,0 -2.823041,-5.855205 -3.648329,-8.978477 -0.817002,-3.091916 -1.250442,-9.512273 -1.250442,-9.512273 0,0 -1.778677,-0.214981 -2.642607,-0.441227 -0.697419,-0.18264 -2.034038,-0.735152 -2.034038,-0.735152 z"
       id="path7"
       sodipodi:nodetypes="caccacacac" />
    <path
       style="fill:#e6e6e6;fill-opacity:0;stroke:#000000;stroke-width:0.5;stroke-linecap:round;stroke-dasharray:none;stroke-dashoffset:0"
       d="m 93.263558,109.73471 c 0,0 -1.343153,-1.71905 -2.210514,-2.35821 -1.214366,-0.89487 -3.622656,-2.50377 -4.070121,-1.97822 -0.394935,0.46388 -1.746501,11.7178 -1.851033,14.34907 -0.117335,2.95357 -0.173319,19.79987 2.790498,20.25575 3.291846,0.50636 4.209862,-4.45101 4.209862,-4.45101 0,0 2.392958,-10.41661 2.392958,-15.71549 0,-5.28777 -1.26165,-10.10189 -1.26165,-10.10189 z"
       id="path8"
       sodipodi:nodetypes="cassscsc" />
    <path
       style="fill:#e6e6e6;fill-opacity:1;stroke:#000000;stroke-width:0.5;stroke-linecap:round;stroke-dasharray:none;stroke-dashoffset:0"
       d="m 80.837199,110.47693 c 0,0 1.18123,-1.65075 1.937853,-2.31379 1.328342,-1.16404 4.122573,-3.36581 4.473577,-2.83945 0.309799,0.46459 -0.92794,12.70229 -0.845943,15.33761 0.09204,2.95812 0.856621,18.56594 -1.468279,19.02251 -2.582215,0.50715 -3.035231,-3.28588 -3.035231,-3.28588 0,0 -1.766049,-10.41095 -1.871407,-15.67051 -0.06864,-3.42678 0.80943,-10.25049 0.80943,-10.25049 z"
       id="path8-7"
       sodipodi:nodetypes="cassscac" />
    <path
       style="fill:#e6e6e6;fill-opacity:1;stroke:#000000;stroke-width:0.5;stroke-linecap:round;stroke-dasharray:none"
       d="m 125.55845,33.261227 c 2.88392,3.209383 2.00098,6.974452 2.02051,12.164618 0.0198,5.255056 0.90594,11.935473 -2.02051,15.177831 -4.01438,4.447734 -13.01718,4.447727 -17.03158,0 -2.9847,-3.306877 -3.35144,-8.719616 -3.28402,-14.081763 0.0644,-5.119837 0.97514,-9.739198 3.83126,-12.889659 1.96867,-2.171569 4.58236,-3.719652 7.76667,-3.748165 3.32332,-0.02976 6.67212,1.100738 8.71767,3.377143 z"
       id="path1-9"
       sodipodi:nodetypes="sssssssss" />
    <path
       style="fill:#e6e6e6;fill-opacity:1;stroke:#000000;stroke-width:0.499999;stroke-linecap:round;stroke-dasharray:none"
       d="m 112.75587,82.775702 c 0,0 4.11076,-8.32991 4.94991,-12.839311 0.3653,-1.96305 0.13742,-5.990251 0,-5.990251 -3.87976,0 -5.52649,-0.776675 -5.52649,-0.776675 l -0.31005,7.914342 z"
       id="path2-8"
       sodipodi:nodetypes="casccc" />
    <path
       style="fill:#e6e6e6;fill-opacity:1;stroke:#000000;stroke-width:0.499999;stroke-linecap:round;stroke-dasharray:none"
       d="m 127.4595,50.912044 c 0,0 1.68846,0.450498 2.44853,0.864619 1.04748,0.570711 2.83078,2.189288 2.83078,2.189288 0,0 -1.2321,-7.831329 -2.62975,-11.54733 -0.32866,-0.873825 -0.85692,-2.35604 -1.4018,-3.33093 -0.44739,-0.800467 -1.147,-1.216415 -1.147,-1.216415 0,0 -0.21411,4.801075 -0.22602,7.203341 -0.01,1.946233 0.12526,5.837427 0.12526,5.837427 z"
       id="path3-6"
       sodipodi:nodetypes="cacsscac" />
    <path
       style="fill:#e6e6e6;fill-opacity:1;stroke:#000000;stroke-width:0.499999;stroke-linecap:round;stroke-dasharray:none;stroke-dashoffset:0"
       d="m 125.86995,59.911858 9.60543,14.648284 c 0,0 -0.44477,-7.381822 -0.9482,-11.041355 -0.4355,-3.165747 -1.78935,-9.418216 -1.78935,-9.418216 -1.50629,-1.341882 -3.20455,-2.804985 -5.28057,-3.007399 0,0 0.017,3.613372 -0.34784,5.369443 -0.24851,1.196187 -1.23947,3.449243 -1.23947,3.449243 z"
       id="path4-5"
       sodipodi:nodetypes="ccaccac" />
    <path
       style="fill:#e6e6e6;fill-opacity:1;stroke:#000000;stroke-width:0.499999;stroke-linecap:round;stroke-dasharray:none;stroke-dashoffset:0"
       d="m 123.96964,99.270272 c 0,0 4.44603,-17.00476 2.44152,-23.80649 -1.24469,-4.223494 -4.23556,-12.646155 -4.23556,-12.646155 0,0 1.44918,-0.708624 2.08147,-1.200212 0.62648,-0.487077 1.66091,-1.705557 1.66091,-1.705557 4.73557,2.849498 7.00405,8.545651 9.46135,14.023934 0,0 -0.3192,8.54176 -1.15148,12.71539 -0.93058,4.6666 -4.26436,13.623628 -4.26436,13.623628 -2.26133,2.19368 -4.1825,1.12172 -5.99385,-1.004538 z"
       id="path5-0"
       sodipodi:nodetypes="cscaccacc" />
    <path
       style="fill:#e6e6e6;fill-opacity:1;stroke:#000000;stroke-width:0.499999;stroke-linecap:round;stroke-dasharray:none;stroke-dashoffset:0"
       d="m 122.33395,62.769474 c 0,0 4.28721,9.814418 4.73668,15.056518 0.61545,7.17803 -2.88163,21.42012 -2.88163,21.42012 -1.63229,2.532598 -3.90136,1.881298 -6.43564,-0.0961 0,0 -2.12401,-4.66622 -2.88163,-7.10802 -0.9715,-3.13113 -2.1132,-9.60544 -2.1132,-9.60544 0,0 2.82304,-5.8552 3.64833,-8.97848 0.817,-3.091912 1.25044,-9.512269 1.25044,-9.512269 0,0 1.77868,-0.214981 2.64261,-0.441227 0.69742,-0.18264 2.03404,-0.735152 2.03404,-0.735152 z"
       id="path7-2"
       sodipodi:nodetypes="caccacacac" />
    <path
       style="fill:#e6e6e6;fill-opacity:0;stroke:#000000;stroke-width:0.5;stroke-linecap:round;stroke-dasharray:none;stroke-dashoffset:0"
       d="m 116.99012,109.46853 c 0,0 1.34316,-1.71905 2.21052,-2.35821 1.21436,-0.89487 3.62265,-2.50377 4.07012,-1.97822 0.39493,0.46388 1.7465,11.7178 1.85103,14.34907 0.11734,2.95357 0.17332,19.79987 -2.7905,20.25575 -3.29184,0.50636 -4.20986,-4.45101 -4.20986,-4.45101 0,0 -2.39296,-10.41661 -2.39296,-15.71549 0,-5.28777 1.26165,-10.10189 1.26165,-10.10189 z"
       id="path8-8"
       sodipodi:nodetypes="cassscsc" />
    <path
       style="fill:#e6e6e6;fill-opacity:1;stroke:#000000;stroke-width:0.5;stroke-linecap:round;stroke-dasharray:none;stroke-dashoffset:0"
       d="m 129.41648,110.21075 c 0,0 -1.18123,-1.65075 -1.93785,-2.31379 -1.32834,-1.16404 -4.12257,-3.36581 -4.47358,-2.83945 -0.3098,0.46459 0.92794,12.70229 0.84594,15.33761 -0.092,2.95812 -0.85662,18.56594 1.46828,19.02251 2.58222,0.50715 3.03523,-3.28588 3.03523,-3.28588 0,0 1.76605,-10.41095 1.87141,-15.67051 0.0686,-3.42678 -0.80943,-10.25049 -0.80943,-10.25049 z"
       id="path8-7-6"
       sodipodi:nodetypes="cassscac" />
  </g>
</svg>
